<svg width="28" height="28" viewBox="0 0 28 28" fill="none" xmlns="http://www.w3.org/2000/svg">
    <path d="M12.667 22H15.3337V19.3334H12.667V22ZM14.0003 0.666687C6.64033 0.666687 0.666992 6.64002 0.666992 14C0.666992 21.36 6.64033 27.3334 14.0003 27.3334C21.3603 27.3334 27.3337 21.36 27.3337 14C27.3337 6.64002 21.3603 0.666687 14.0003 0.666687ZM14.0003 24.6667C8.12033 24.6667 3.33366 19.88 3.33366 14C3.33366 8.12002 8.12033 3.33335 14.0003 3.33335C19.8803 3.33335 24.667 8.12002 24.667 14C24.667 19.88 19.8803 24.6667 14.0003 24.6667ZM14.0003 6.00002C11.0537 6.00002 8.66699 8.38669 8.66699 11.3334H11.3337C11.3337 9.86669 12.5337 8.66669 14.0003 8.66669C15.467 8.66669 16.667 9.86669 16.667 11.3334C16.667 14 12.667 13.6667 12.667 18H15.3337C15.3337 15 19.3337 14.6667 19.3337 11.3334C19.3337 8.38669 16.947 6.00002 14.0003 6.00002Z" fill="#1A66B1"/>
</svg>
